<svg version="1" xmlns="http://www.w3.org/2000/svg" width="933.333" height="933.333" viewBox="0 0 700.000000 700.000000"><path d="M415.7 38.6c-5.1 1.8-8.6 4.7-11.7 9.7l-2.5 4.2.1 69.5c.1 38.2.4 118.4.7 178.2.5 110.3.5 110.8-2.9 108-1.4-1.2-11-4.8-18.9-7.1-12.7-3.7-27.6-5.5-44.5-5.5-10 .1-27.8 1.2-29 1.9-.3.1-2.7.6-5.5.9-25.4 3.4-59.1 14.4-87.6 28.7-38.4 19.2-73.3 47-95.4 75.9-16.7 21.7-26.9 43.4-30.2 64.3-1 5.7-1 21.2 0 26.7 4.6 27.8 24.5 48.9 56 59.4 5.8 2 12.1 3.8 13.9 4.1 1.8.4 6.7 1.2 10.8 1.9 10.1 1.8 40.9 1.8 53.5.1 45.8-6.5 88.9-22.9 128-48.9 8.2-5.4 19.3-13.5 22.1-16.1.7-.5 3.1-2.6 5.5-4.5 8.3-6.5 28.4-27.5 35.5-37 13-17.5 22.6-35.6 26.9-51 4.4-16 4.4-17 3.9-162.5-.9-242.1-1.2-283.8-2.3-287.4-3.3-10.8-15.7-17.2-26.4-13.5z"/><path d="M200.6 42.1c-.2.8-1 3.9-1.6 6.9-11.9 57.1-33.6 93.5-70.6 118.5-19.8 13.4-50.6 25.2-77.9 29.9-9.5 1.7-9.4 1.8 2 4.2 11.1 2.4 31 8.3 37.5 11.1 1.9.9 8 3.7 13.5 6.4C139.1 236 167 265.3 184 304c6.3 14.1 12.7 34 15.1 46.8 1.1 5.7 2.5 8.9 2.6 5.9.1-2.3 4.4-17.8 8.2-29.4 23.4-71.5 67.7-111.4 139.6-125.7l11-2.2-7-1.3c-78.4-14-116.7-45.1-140.6-113.9-3.2-9.1-9.5-32.5-10.5-38.7-.7-4.5-1.2-5.4-1.8-3.4zM562.6 445.1c-3.7 18.6-12 43.5-16.6 49.9-1.1 1.6-2 3.1-2 3.4 0 1-5.1 8.7-9.4 14.1-12.8 16.2-30.2 28.2-52.6 36.3-9.6 3.5-27.3 8.2-30.7 8.2-4.5 0-2.2 1.6 4.2 2.8 9.6 1.8 24.8 6.9 34.5 11.4 26.4 12.5 46.7 32.9 59.4 59.9 5.1 10.7 9.5 23.7 12.1 35.3l1.8 7.9 3.6-12.9c4.7-16.4 11.8-33.9 17.4-42.8 3.6-5.9 11.7-16.8 14.7-20.2 4.5-5 16.2-15 22-19 10.9-7.6 32.2-16 48.4-19.3 9.2-1.8 9.9-2.7 2.9-3.5-7-.9-20.5-4.4-29.8-7.6-34.2-12.1-56.2-35-69.3-72.2-3.1-8.8-7.7-24.8-8.6-30.2-.7-3.8-1.4-4.4-2-1.5z"/></svg>