<?xml version="1.0" standalone="no"?>
<!DOCTYPE svg PUBLIC "-//W3C//DTD SVG 20010904//EN"
 "http://www.w3.org/TR/2001/REC-SVG-20010904/DTD/svg10.dtd">
<svg version="1.0" xmlns="http://www.w3.org/2000/svg"
 width="700.000000pt" height="700.000000pt" viewBox="0 0 700.000000 700.000000"
 preserveAspectRatio="xMidYMid meet">
<metadata>
Created by potrace 1.11, written by Peter Selinger 2001-2013
</metadata>
<g transform="translate(0.000000,700.000000) scale(0.100000,-0.100000)"
fill="#000000" stroke="none">
<path d="M4158 6616 c-59 -21 -85 -42 -115 -93 l-28 -48 2 -725 c0 -399 3
-1201 6 -1782 3 -582 4 -1058 2 -1058 -1 0 -34 13 -72 29 -178 73 -373 107
-598 105 -169 -2 -236 -8 -385 -34 -110 -20 -132 -25 -205 -44 -411 -107 -840
-318 -1160 -573 -135 -107 -314 -285 -406 -403 -218 -279 -327 -548 -327 -801
0 -348 213 -611 595 -734 75 -24 226 -54 308 -61 63 -5 326 -5 365 0 19 3 71
10 115 16 44 6 114 18 155 26 41 8 84 16 95 18 45 9 237 68 326 100 323 118
649 300 903 506 132 107 315 294 404 412 157 210 237 374 288 593 18 76 19
137 18 1195 -1 613 -4 1583 -7 2156 -4 1012 -5 1042 -24 1085 -26 56 -66 94
-122 114 -53 18 -84 18 -133 1z"/>
<path d="M2007 6580 c-3 -8 -13 -51 -22 -95 -9 -44 -18 -87 -20 -96 -15 -71
-74 -252 -111 -343 -223 -544 -608 -851 -1254 -1000 -58 -13 -123 -27 -145
-31 -38 -7 -35 -9 65 -30 618 -129 1052 -455 1298 -975 78 -164 161 -420 179
-550 3 -19 7 -37 8 -39 3 -2 23 59 31 94 27 126 113 371 180 510 179 375 444
643 801 811 117 54 348 128 463 147 14 3 44 8 68 12 48 8 49 13 6 21 -124 21
-156 27 -209 40 -364 87 -620 220 -829 430 -222 221 -394 589 -490 1044 -8 36
-16 58 -19 50z"/>
<path d="M5626 2548 c-12 -62 -14 -73 -30 -138 -20 -76 -44 -157 -56 -185 -97
-229 -158 -325 -290 -455 -149 -147 -354 -250 -625 -316 -137 -33 -147 -36
-115 -41 105 -17 308 -83 415 -136 56 -28 178 -103 211 -130 97 -79 254 -249
254 -276 0 -5 4 -11 9 -13 13 -5 83 -134 124 -228 33 -77 106 -320 108 -359 0
-9 10 18 21 59 63 234 154 441 255 582 68 94 187 215 263 266 30 20 57 39 60
43 14 15 194 100 260 123 62 21 221 63 267 70 18 3 25 13 11 13 -108 7 -367
82 -482 140 -175 87 -329 229 -433 398 -75 121 -179 410 -208 575 -8 46 -11
47 -19 8z"/>
</g>
</svg>
